<svg xmlns="http://www.w3.org/2000/svg"  viewBox="0 0 30 30" width="30px" height="30px"><path d="M 15 3 C 12.424 3 9.146 7 5 7 A 1 1 0 0 0 4 8 A 1 1 0 0 0 4.0800781 8.390625 C 4.4457382 9.4439688 6 11 6 11 L 24 11 C 24 11 25.548201 9.4497261 25.917969 8.3964844 A 1 1 0 0 0 26 8 A 1 1 0 0 0 25 7 C 20.854 7 17.576 3 15 3 z M 13.5 6 L 16.5 6 C 16.5 8 15 9 15 9 C 15 9 13.5 8 13.5 6 z M 6 13 L 6 13.986328 A 1.0001 1.0001 0 0 0 5.984375 13.986328 A 1.0001 1.0001 0 0 0 5 15 C 5 16.040304 5.3600451 16.753987 5.7949219 17.310547 C 5.4431139 17.930102 5 18.883601 5 20.275391 C 5 22.748276 6.5856146 24.307884 8.2265625 24.982422 C 9.6449813 25.565485 11.036102 25.640491 12.015625 25.636719 C 12.140396 25.821371 12.114795 25.876725 12.339844 26.076172 C 12.85211 26.530169 13.697612 26.940719 14.818359 26.984375 A 1.0001 1.0001 0 0 0 14.96875 26.998047 C 14.979814 26.998121 14.988883 27 15 27 A 1.0001 1.0001 0 0 0 15.212891 26.978516 C 16.317287 26.928253 17.152858 26.525766 17.660156 26.076172 C 17.886327 25.875727 17.861414 25.820022 17.986328 25.634766 C 18.966317 25.638766 20.355848 25.563316 21.773438 24.980469 C 23.414418 24.305772 25 22.748276 25 20.275391 C 25 18.884113 24.556827 17.930191 24.205078 17.310547 C 24.640322 16.754053 25 16.040304 25 15 A 1.0001 1.0001 0 0 0 24 13.986328 L 24 13 L 21.880859 13 L 8.6640625 13 L 6 13 z M 21.933594 13.582031 C 21.998594 14.464031 22 14.402125 22 15.078125 L 22.994141 15.078125 C 22.978964 16.056177 22.732317 16.196655 22.488281 16.341797 A 1.0001 1.0001 0 0 0 22.1875 17.783203 C 22.1875 17.783203 23 18.993452 23 20.275391 C 23 21.985506 22.192192 22.646306 21.013672 23.130859 C 19.835152 23.615413 18.313019 23.683333 17.542969 23.65625 A 1.0001 1.0001 0 0 0 16.576172 24.291016 C 16.576172 24.291016 16.551192 24.385626 16.333984 24.578125 C 16.116778 24.770624 15.76558 24.998047 15 24.998047 A 1.0001 1.0001 0 0 0 14.982422 24.998047 C 14.230805 24.994094 13.881308 24.770881 13.666016 24.580078 C 13.44881 24.387579 13.423828 24.292969 13.423828 24.292969 A 1.0001 1.0001 0 0 0 12.457031 23.65625 C 11.686244 23.682907 10.16488 23.617276 8.9863281 23.132812 C 7.807776 22.64835 7 21.985506 7 20.275391 C 7 18.992216 7.8125 17.785156 7.8125 17.785156 A 1.0001 1.0001 0 0 0 7.5117188 16.34375 C 7.2584688 16.192617 7 16.065455 7 15 L 8 15 C 8 14.121 8.1126406 14.403594 8.3066406 13.808594 C 9.5646406 14.976594 12.151 17 15 17 C 18.042 17 20.789594 14.690031 21.933594 13.582031 z"/></svg>