<svg xmlns="http://www.w3.org/2000/svg"  viewBox="0 0 32 32" width="30px" height="30px"><path d="M 7 4 L 7 19 L 5 19 L 5 20 L 5 28 L 27 28 L 27 19 L 25 19 L 25 4 L 7 4 z M 9 6 L 23 6 L 23 19 L 18 19 L 18 20 C 18 21.116666 17.116666 22 16 22 C 14.883334 22 14 21.116666 14 20 L 14 19 L 9 19 L 9 6 z M 17 8 L 17 12 L 21 12 L 21 8 L 17 8 z M 11 9 L 11 11 L 15 11 L 15 9 L 11 9 z M 19 13 A 2 2 0 0 0 19 17 A 2 2 0 0 0 19 13 z M 11 14 L 11 16 L 15 16 L 15 14 L 11 14 z M 7 21 L 12.203125 21 C 12.659479 22.706363 14.156406 24 16 24 C 17.843594 24 19.340521 22.706363 19.796875 21 L 25 21 L 25 26 L 7 26 L 7 21 z"/></svg>